<?xml version="1.0" encoding="UTF-8" standalone="no"?>
<!-- Created with Inkscape (http://www.inkscape.org/) -->
<svg xmlns:dc="http://purl.org/dc/elements/1.1/" xmlns:cc="http://creativecommons.org/ns#" xmlns:rdf="http://www.w3.org/1999/02/22-rdf-syntax-ns#" xmlns:svg="http://www.w3.org/2000/svg" xmlns="http://www.w3.org/2000/svg" xmlns:xlink="http://www.w3.org/1999/xlink" version="1.1" width="100" height="100" id="svg3995">
  <defs id="defs3997">
    <linearGradient id="linearGradient4682">
      <stop id="stop4684" style="stop-color:#000000;stop-opacity:1" offset="0"/>
      <stop id="stop4686" style="stop-color:#393939;stop-opacity:0" offset="1"/>
    </linearGradient>
    <linearGradient id="linearGradient4641">
      <stop id="stop4643" style="stop-color:#d9fb6e;stop-opacity:1" offset="0"/>
      <stop id="stop4645" style="stop-color:#698b02;stop-opacity:1" offset="1"/>
    </linearGradient>
    <radialGradient cx="45" cy="987.36273" r="44.25" fx="45" fy="987.36273" id="radialGradient4655" xlink:href="#linearGradient4641" gradientUnits="userSpaceOnUse" gradientTransform="matrix(1.6949153,-1.3186559e-6,1.4065667e-6,1.8079101,-31.272576,-797.70074)"/>
    <linearGradient x1="65" y1="979.36212" x2="65" y2="1031.3622" id="linearGradient4688" xlink:href="#linearGradient4682" gradientUnits="userSpaceOnUse"/>
  </defs>
  <metadata id="metadata4000">
    <rdf:RDF>
      <cc:Work rdf:about="">
        <dc:format>image/svg+xml</dc:format>
        <dc:type rdf:resource="http://purl.org/dc/dcmitype/StillImage"/>
        <dc:title/>
      </cc:Work>
    </rdf:RDF>
  </metadata>
  <g transform="translate(0,-952.36215)" id="layer1">
    <path d="m 50,958.11215 c 0,0 44.25,0 44.25,44.24995 0,44.2501 -44.25,44.2501 -44.25,44.2501 0,0 -44.25,0 -44.25,-44.2501 C 5.75,958.11215 50,958.11215 50,958.11215 z" id="path4532" style="fill:url(#radialGradient4655);fill-opacity:1;stroke:none"/>
    <g id="text4657" style="font-size:61.97425461px;font-style:normal;font-weight:normal;line-height:125%;letter-spacing:0px;word-spacing:0px;fill:#393939;fill-opacity:1;stroke:none;font-family:Sans">
      <path d="m 39.49948,1031.9724 c -3.933926,-1.1096 -6.738097,-2.8748 -8.412521,-5.2956 -1.654268,-2.4209 -2.481398,-5.3562 -2.481391,-8.806 l 0,-6.1429 c -7e-6,-1.9972 -0.443832,-3.5506 -1.331478,-4.6602 -0.867483,-1.1095 -2.209047,-1.6643 -4.024695,-1.6643 l 0,-6.08247 c 1.815648,2e-5 3.157212,-0.54468 4.024695,-1.63409 0.887646,-1.10954 1.331471,-2.6831 1.331478,-4.72069 l 0,-6.14296 c -7e-6,-3.4497 0.827123,-6.37491 2.481391,-8.77565 1.674424,-2.42082 4.478595,-4.18604 8.412521,-5.29565 l 1.694609,4.75095 c -1.714801,0.62544 -2.925234,1.74509 -3.631304,3.35896 -0.706102,1.59378 -1.059145,3.58091 -1.059131,5.96139 l 0,6.14296 c -1.4e-5,2.09811 -0.453927,3.96419 -1.361739,5.59826 -0.887664,1.61389 -2.239315,2.87479 -4.054956,3.78259 1.815641,0.9482 3.167292,2.2393 4.054956,3.8734 0.907812,1.6139 1.361725,3.4498 1.361739,5.5075 l 0,6.1429 c -1.4e-5,2.3806 0.353029,4.3677 1.059131,5.9614 0.70607,1.6139 1.916503,2.7336 3.631304,3.359 l -1.694609,4.7812" id="path4715" style="font-variant:normal;font-weight:bold;font-stretch:normal;fill:#393939;font-family:Roboto;-inkscape-font-specification:Roboto Bold"/>
      <path d="m 58.775652,1027.1912 c 1.714779,-0.6254 2.925213,-1.7451 3.631304,-3.359 0.706081,-1.5937 1.059124,-3.5808 1.05913,-5.9614 l 0,-6.1429 c -6e-6,-2.0981 0.463994,-3.9541 1.392,-5.568 0.927992,-1.6139 2.340164,-2.8748 4.236521,-3.7826 -1.896357,-0.9078 -3.308529,-2.1687 -4.236521,-3.78263 -0.928006,-1.63407 -1.392006,-3.51024 -1.392,-5.62852 l 0,-6.14296 c -6e-6,-2.38048 -0.353049,-4.36761 -1.05913,-5.96139 -0.706091,-1.61387 -1.916525,-2.73352 -3.631304,-3.35896 l 1.694608,-4.75095 c 3.913732,1.10961 6.707816,2.87483 8.38226,5.29565 1.674422,2.40074 2.511639,5.32595 2.511652,8.77565 l 0,6.14296 c -1.3e-5,2.03759 0.433725,3.61115 1.301217,4.72069 0.867463,1.08941 2.229201,1.63411 4.085217,1.63409 l 0,6.08247 c -1.856016,0 -3.217754,0.5548 -4.085217,1.6643 -0.867492,1.1096 -1.30123,2.663 -1.301217,4.6602 l 0,6.1429 c -1.3e-5,3.4498 -0.83723,6.3851 -2.511652,8.806 -1.674444,2.4208 -4.468528,4.186 -8.38226,5.2956 l -1.694608,-4.7812" id="path4717" style="font-variant:normal;font-weight:bold;font-stretch:normal;fill:#393939;font-family:Roboto;-inkscape-font-specification:Roboto Bold"/>
    </g>
    <g id="text4657-5" style="font-size:61.97425461px;font-style:normal;font-weight:normal;line-height:125%;letter-spacing:0px;word-spacing:0px;fill:url(#linearGradient4688);fill-opacity:1;stroke:none;font-family:Sans">
      <path d="m 39.49948,1031.9724 c -3.933926,-1.1096 -6.738097,-2.8748 -8.412521,-5.2956 -1.654268,-2.4209 -2.481398,-5.3562 -2.481391,-8.806 l 0,-6.1429 c -7e-6,-1.9972 -0.443832,-3.5506 -1.331478,-4.6602 -0.867483,-1.1095 -2.209047,-1.6643 -4.024695,-1.6643 l 0,-6.08247 c 1.815648,2e-5 3.157212,-0.54468 4.024695,-1.63409 0.887646,-1.10954 1.331471,-2.6831 1.331478,-4.72069 l 0,-6.14296 c -7e-6,-3.4497 0.827123,-6.37491 2.481391,-8.77565 1.674424,-2.42082 4.478595,-4.18604 8.412521,-5.29565 l 1.694609,4.75095 c -1.714801,0.62544 -2.925234,1.74509 -3.631304,3.35896 -0.706102,1.59378 -1.059145,3.58091 -1.059131,5.96139 l 0,6.14296 c -1.4e-5,2.09811 -0.453927,3.96419 -1.361739,5.59826 -0.887664,1.61389 -2.239315,2.87479 -4.054956,3.78259 1.815641,0.9482 3.167292,2.2393 4.054956,3.8734 0.907812,1.6139 1.361725,3.4498 1.361739,5.5075 l 0,6.1429 c -1.4e-5,2.3806 0.353029,4.3677 1.059131,5.9614 0.70607,1.6139 1.916503,2.7336 3.631304,3.359 l -1.694609,4.7812" id="path4710" style="font-variant:normal;font-weight:bold;font-stretch:normal;font-family:Roboto;-inkscape-font-specification:Roboto Bold"/>
      <path d="m 58.775652,1027.1912 c 1.714779,-0.6254 2.925213,-1.7451 3.631304,-3.359 0.706081,-1.5937 1.059124,-3.5808 1.05913,-5.9614 l 0,-6.1429 c -6e-6,-2.0981 0.463994,-3.9541 1.392,-5.568 0.927992,-1.6139 2.340164,-2.8748 4.236521,-3.7826 -1.896357,-0.9078 -3.308529,-2.1687 -4.236521,-3.78263 -0.928006,-1.63407 -1.392006,-3.51024 -1.392,-5.62852 l 0,-6.14296 c -6e-6,-2.38048 -0.353049,-4.36761 -1.05913,-5.96139 -0.706091,-1.61387 -1.916525,-2.73352 -3.631304,-3.35896 l 1.694608,-4.75095 c 3.913732,1.10961 6.707816,2.87483 8.38226,5.29565 1.674422,2.40074 2.511639,5.32595 2.511652,8.77565 l 0,6.14296 c -1.3e-5,2.03759 0.433725,3.61115 1.301217,4.72069 0.867463,1.08941 2.229201,1.63411 4.085217,1.63409 l 0,6.08247 c -1.856016,0 -3.217754,0.5548 -4.085217,1.6643 -0.867492,1.1096 -1.30123,2.663 -1.301217,4.6602 l 0,6.1429 c -1.3e-5,3.4498 -0.83723,6.3851 -2.511652,8.806 -1.674444,2.4208 -4.468528,4.186 -8.38226,5.2956 l -1.694608,-4.7812" id="path4712" style="font-variant:normal;font-weight:bold;font-stretch:normal;font-family:Roboto;-inkscape-font-specification:Roboto Bold"/>
    </g>
  </g>
</svg>